# xmcd
# 
# Track frame offsets:
#     150
#     21140
#     38492
#     59230
#     79767
#     94180
#     115172
#     138252
#     150990
#     174400
#     194842
#     212842
#     238745
#     255835
#     269557
# 
# Disc length: 3868
# 
# Revision: 14
# Processed by: cddbd v1.5.2PL0 Copyright (c) Steve Scherf et al.
# Submitted via: fre:ac v1.0.31
# 
DISCID=cd0f1a0f
DTITLE=Yanni - Reflections of Passion
DYEAR=1990
DGENRE=New Age
TTITLE0=After the Sunrise
TTITLE1=The Mermaid
TTITLE2=Quiet Man
TTITLE3=Nostalgia
TTITLE4=Almost a Whisper
TTITLE5=The Rain Must Fall
TTITLE6=Acroyali
TTITLE7=Farewell
TTITLE8=Swept Away
TTITLE9=True Nature
TTITLE10=Secret Vows
TTITLE11=Flight of Fantasy
TTITLE12=A Word in Private
TTITLE13=First Touch
TTITLE14=Reflections of Passion
EXTD=YEAR: 1990
EXTT0=
EXTT1=
EXTT2=
EXTT3=
EXTT4=
EXTT5=
EXTT6=
EXTT7=
EXTT8=
EXTT9=
EXTT10=
EXTT11=
EXTT12=
EXTT13=
EXTT14=
PLAYORDER=
